<?xml version="1.0" standalone="no"?>
<!DOCTYPE svg PUBLIC "-//W3C//DTD SVG 20010904//EN"
 "http://www.w3.org/TR/2001/REC-SVG-20010904/DTD/svg10.dtd">
<svg version="1.0" xmlns="http://www.w3.org/2000/svg"
 width="640.000000pt" height="456.000000pt" viewBox="0 0 640.000000 456.000000"
 preserveAspectRatio="xMidYMid meet">
<metadata>
Created by potrace 1.16, written by Peter Selinger 2001-2019
</metadata>
<g transform="translate(0.000000,456.000000) scale(0.100000,-0.100000)"
fill="#000000" stroke="none">
<path d="M1341 2970 c-12 -17 -19 -35 -16 -40 4 -6 64 -10 141 -10 74 0 134
-3 134 -7 0 -5 -67 -7 -149 -5 l-149 3 -21 -34 c-11 -19 -21 -37 -21 -40 0 -4
64 -8 143 -10 l142 -3 -155 -2 -155 -2 -17 -34 c-9 -19 -14 -37 -11 -40 4 -3
69 -6 145 -6 l138 0 0 -368 c0 -465 3 -477 120 -534 30 -15 64 -29 75 -31 16
-4 15 -5 -5 -6 -37 -1 -122 42 -152 77 -52 62 -56 92 -61 424 -3 169 -8 312
-12 319 -6 8 -10 7 -17 -5 -5 -9 -14 -14 -19 -10 -19 11 -230 7 -242 -5 -14
-14 -22 -711 -8 -721 4 -3 15 -27 25 -53 37 -99 158 -184 324 -229 113 -30
384 -30 493 0 163 44 276 125 329 233 26 55 27 64 29 225 1 93 -1 256 -5 364
l-7 195 -133 0 c-74 0 -134 0 -134 0 -4 0 -23 -396 -24 -500 -2 -129 -4 -144
-26 -183 -15 -25 -35 -45 -49 -49 -42 -11 -167 5 -219 27 -64 28 -88 53 -112
123 -19 53 -20 83 -20 512 l0 455 -138 0 -138 0 -23 -30z m233 -1012 c10 -21
36 -53 57 -73 22 -19 35 -35 29 -35 -18 0 -81 63 -103 104 -21 40 -22 52 -25
425 -2 211 0 395 5 410 5 15 10 -145 13 -384 5 -373 7 -413 24 -447z"/>
<path d="M2176 2985 c4 -8 2 -15 -3 -15 -5 0 -10 -11 -11 -25 l-2 -24 138 -4
137 -3 -141 -2 c-140 -2 -141 -2 -152 -27 -25 -54 -24 -55 128 -55 77 0 140
-3 140 -7 0 -5 -66 -7 -148 -5 l-148 3 -12 -34 c-7 -18 -12 -36 -12 -40 0 -4
65 -7 144 -7 l143 0 7 -37 c3 -21 6 -176 6 -345 0 -169 3 -309 8 -311 4 -3 8
17 10 44 1 26 9 67 17 90 8 23 15 57 15 75 0 19 3 34 8 34 4 0 8 160 9 355 l2
355 -144 0 c-124 0 -144 -2 -139 -15z"/>
<path d="M2530 2975 c0 -14 -5 -25 -11 -25 -8 0 -8 -5 1 -15 11 -13 82 -15
558 -13 l546 3 7 30 c6 20 4 32 -4 37 -7 4 -256 8 -554 8 l-543 0 0 -25z"/>
<path d="M3700 2477 c0 -292 4 -527 9 -532 8 -9 11 -33 28 -194 3 -37 8 -49
14 -40 5 8 9 242 9 522 l0 507 174 0 c96 0 177 4 180 9 3 5 1 23 -5 40 l-11
32 -179 -3 c-99 -2 -179 0 -179 5 0 4 79 7 175 7 l176 0 -3 28 c-6 51 -13 53
-198 50 -131 -2 -170 0 -170 10 0 9 40 12 165 12 156 0 165 1 165 19 0 51 -1
51 -181 51 l-169 0 0 -523z"/>
<path d="M4600 2825 l0 -175 -235 0 -235 0 0 -35 0 -35 255 0 255 0 0 153 c0
83 3 162 6 175 6 22 9 22 165 22 103 0 159 4 159 10 0 6 -7 22 -16 35 -16 25
-17 25 -185 25 l-169 0 0 -175z"/>
<path d="M2510 2896 c0 -8 -5 -16 -11 -18 -9 -3 -9 -10 0 -26 l12 -22 569 0
570 0 0 24 c0 60 40 56 -576 56 -480 0 -564 -2 -564 -14z"/>
<path d="M4658 2733 l-3 -178 -265 -5 -265 -5 -3 -33 c-2 -18 -7 -30 -12 -27
-5 3 -81 6 -168 8 l-160 2 -6 -130 c-3 -71 -7 -277 -9 -458 l-2 -327 185 2
185 3 3 213 2 212 226 0 226 0 11 -30 c14 -37 27 -39 29 -2 0 15 5 -4 9 -43
11 -95 11 -93 26 -99 7 -3 13 -17 13 -30 0 -28 29 -96 42 -96 4 0 9 66 10 148
3 123 5 147 18 147 13 0 15 -31 18 -212 l2 -213 184 0 c158 0 185 2 190 16 3
9 6 68 6 132 0 136 -19 682 -26 729 l-5 32 -169 3 -169 3 -6 -75 c-3 -41 -7
-81 -8 -88 -2 -11 -62 -14 -317 -13 l-315 1 -3 25 -3 25 308 2 308 3 1 170 c0
94 1 176 2 183 2 9 45 12 177 12 191 0 196 2 152 53 l-23 27 -172 0 -172 0 0
-185 0 -185 -296 0 c-232 0 -295 3 -292 13 4 9 72 13 286 15 l282 2 0 159 c0
88 3 166 6 175 5 14 30 16 175 16 116 0 169 3 169 11 0 6 -9 24 -21 40 l-20
29 -169 0 -170 0 -2 -177z"/>
<path d="M2486 2798 c-3 -13 -6 -31 -6 -40 0 -17 35 -18 595 -18 l595 0 0 24
c0 60 42 56 -595 56 l-583 0 -6 -22z"/>
<path d="M2500 2511 c0 -7 -4 -10 -9 -7 -11 7 -21 -17 -21 -50 l0 -24 163 -2
162 -3 -4 -422 -4 -423 288 0 288 0 -6 425 -7 425 160 0 160 0 0 38 0 37 -572
-2 c-392 -1 -576 2 -585 9 -9 7 -13 7 -13 -1z"/>
</g>
</svg>
